<svg xmlns="http://www.w3.org/2000/svg" viewBox="0 0 800 800" width="800" height="800" role="img">
<defs>
  <filter id="grain" x="0" y="0">
    <feTurbulence type="fractalNoise" baseFrequency="0.8" numOctaves="3" result="n"/>
    <feColorMatrix in="n" type="saturate" values="0"/>
    <feComponentTransfer><feFuncA type="linear" slope="0.06"/></feComponentTransfer>
  </filter><linearGradient id="g4" x1="0" y1="0" x2="1" y2="1">
    <stop offset="0" stop-color="#fbeedf"/><stop offset="1" stop-color="#e7c9ae"/></linearGradient></defs>
<rect width="800" height="800" fill="url(#g4)"/>

  <circle cx="400" cy="380" r="210" fill="#fff" opacity="0.28"/>
  <g fill="#c98c6b" opacity="0.9">
    <ellipse cx="300" cy="330" rx="46" ry="26" transform="rotate(-25 300 330)"/>
    <ellipse cx="470" cy="300" rx="40" ry="22" transform="rotate(20 470 300)"/>
    <ellipse cx="520" cy="430" rx="44" ry="24" transform="rotate(-10 520 430)"/>
    <ellipse cx="270" cy="470" rx="38" ry="21" transform="rotate(35 270 470)"/>
    <ellipse cx="400" cy="500" rx="42" ry="23" transform="rotate(-40 400 500)"/>
  </g>
  <g stroke="#8a6a4f" stroke-width="4" fill="none" stroke-linecap="round" opacity="0.8">
    <path d="M400 540c-30-70-14-140 20-190"/>
  </g>
  <text x="400" y="690" text-anchor="middle" font-family="Georgia, serif" font-size="30" fill="#8a7466" letter-spacing="8">ОСЕНЬ</text>
<rect width="800" height="800" filter="url(#grain)" opacity="0.5"/>
</svg>